<?xml version="1.0" encoding="utf-8"?>
<!-- Generator: Adobe Illustrator 25.4.1, SVG Export Plug-In . SVG Version: 6.00 Build 0)  -->
<svg version="1.1" id="레이어_1" xmlns="http://www.w3.org/2000/svg" xmlns:xlink="http://www.w3.org/1999/xlink" x="0px"
	 y="0px" viewBox="0 0 24 24" style="enable-background:new 0 0 24 24;" xml:space="preserve">
<g>
	<path d="M11.1,12.4v-1.7h0.5c0.9,0,1.8-0.5,1.8-1.6c0-0.9-0.7-1.6-1.6-1.6S10.3,8,10.2,9.1H8.6c0-0.5,0.2-1.3,0.7-1.9
		c0.6-0.7,1.6-1.3,2.7-1.3c1.8,0,3.2,1.4,3.2,3.3c0,1-0.3,1.6-1.1,2.3c1,0.7,1.6,1.7,1.6,2.9c0,2.2-1.6,3.8-3.8,3.8
		c-2.1,0-3.8-1.6-3.8-3.7h1.7c0.1,1.4,1,2.2,2.2,2.2c1.2,0,2.1-1,2.1-2.2c0-1.1-0.8-2.1-2.3-2.1H11.1z"/>
</g>
</svg>
