<?xml version="1.0" encoding="utf-8"?>
<!-- Generator: Adobe Illustrator 26.4.0, SVG Export Plug-In . SVG Version: 6.00 Build 0)  -->
<svg version="1.1" id="레이어_1" xmlns="http://www.w3.org/2000/svg" xmlns:xlink="http://www.w3.org/1999/xlink" x="0px"
	 y="0px" viewBox="0 0 1920 1920" style="enable-background:new 0 0 1920 1920;" xml:space="preserve">
<g>
	<g>
		<path d="M1250.4,388c13.8,5.5,18.9,15.7,18.8,30.5c-0.5,53.6-0.1,107.2-0.2,160.8c0,22.3-8,29.8-30.5,30c-38,0.4-76,0.2-113.9,1.8
			c-20.6,0.8-40.4,6.8-50.5,27.2c-4.8,9.7-8.4,21.2-8.6,31.9c-1,42.4-0.4,84.8-0.4,129c4,0,7.9,0,11.8,0c51.4,0,102.8,0,154.1,0
			c23,0,30.9,7.9,30.9,30.9c0,58.1,0,116.2-0.1,174.3c0,21.6-8,29.5-29.7,29.6c-51.4,0.1-102.8,0-154.1,0c-4,0-8,0-13.4,0
			c0,5.4,0,9.7,0,14.1c0,150.1,0,300.1,0,450.2c0,26.4-7.4,33.8-33.8,33.8c-58.8,0-117.7,0-176.5,0c-23.2,0-31-7.7-31-30.7
			c0-150.8,0-301.6,0-452.4c0-4.4,0-8.8,0-14.9c-4.8,0-8.7,0-12.6,0c-43.6,0-87.1,0.1-130.7,0c-20.9,0-29.1-8.1-29.1-29
			c-0.1-58.8-0.1-117.7,0-176.5c0-20.7,8.6-29.1,29.3-29.1c43.2-0.1,86.4,0,129.6,0c4,0,8.1,0,13.6,0c0-4.8,0-8.8,0-12.7
			c0.2-46.2-1.1-92.4,0.9-138.5c2.8-65.6,22.5-125.7,67-175.7c37.2-41.9,84.5-66.1,138.8-77.4c13-2.7,26.3-4.6,39.4-6.9
			C1129.7,388,1190.1,388,1250.4,388z"/>
	</g>
</g>
</svg>
