<?xml version="1.0" encoding="utf-8"?>
<!-- Generator: Adobe Illustrator 25.4.1, SVG Export Plug-In . SVG Version: 6.00 Build 0)  -->
<svg version="1.1" id="레이어_1" xmlns="http://www.w3.org/2000/svg" xmlns:xlink="http://www.w3.org/1999/xlink" x="0px"
	 y="0px" viewBox="0 0 24 24" style="enable-background:new 0 0 24 24;" xml:space="preserve">
<g>
	<path d="M11,14.9c0-1.3,0.4-2.4,2.1-4c0.5-0.4,0.7-0.9,0.7-1.4c0-1.1-0.8-2-1.9-2c-1,0-1.8,0.7-1.9,1.9H8.4
		c0.1-2.3,1.8-3.6,3.6-3.6c1.9,0,3.5,1.6,3.5,3.5c0,1.7-0.7,2.2-1.7,3.1c-0.6,0.6-1,1.2-1.1,2.4H11z M11,18v-2h1.7v2H11z"/>
</g>
</svg>
